<svg width="1363" height="144" viewBox="0 0 1363 144" fill="none" xmlns="http://www.w3.org/2000/svg">
<path d="M1 56.8906V31C1 14.4315 14.4315 1 31 1H1332C1348.57 1 1362 14.4314 1362 31V56.8906C1362 73.4591 1348.57 86.8906 1332 86.8906H1003.63C991.797 86.8906 980.348 91.0864 971.319 98.7321L927.429 135.895C922.011 140.482 915.142 143 908.043 143H520.713C513.614 143 506.745 140.482 501.327 135.895L451.843 93.9955C446.426 89.4081 439.557 86.8906 432.457 86.8906H31C14.4315 86.8906 1 73.4591 1 56.8906Z" fill="#FFEB3B" fill-opacity="0.3" stroke="#C4C4C4" stroke-width="2"/>
</svg>
